<?xml version="1.0" standalone="no"?>
<!DOCTYPE svg PUBLIC "-//W3C//DTD SVG 20010904//EN"
 "http://www.w3.org/TR/2001/REC-SVG-20010904/DTD/svg10.dtd">
<svg version="1.0" xmlns="http://www.w3.org/2000/svg"
 width="348.000000pt" height="81.000000pt" viewBox="0 0 348.000000 81.000000"
 preserveAspectRatio="xMidYMid meet">

<g transform="translate(0.000000,81.000000) scale(0.100000,-0.100000)"
fill="#000000" stroke="none">
<path d="M349 647 c-104 -29 -159 -109 -159 -232 0 -160 106 -259 256 -240 48
6 53 4 71 -20 16 -23 25 -26 66 -23 l47 3 -29 44 -30 45 21 29 c67 93 62 243
-10 328 -56 65 -144 90 -233 66z m138 -92 c51 -34 75 -127 53 -206 -33 -118
-193 -132 -242 -21 -26 57 -21 149 8 190 44 59 122 75 181 37z"/>
<path d="M1093 650 c-44 -18 -22 -90 26 -90 14 0 51 37 51 50 0 12 -37 50 -47
49 -5 0 -18 -4 -30 -9z"/>
<path d="M1620 415 l0 -235 40 0 39 0 3 82 3 82 65 -82 65 -81 53 0 54 -1 -83
96 -82 95 74 75 73 74 -49 0 c-47 0 -52 -3 -112 -62 l-63 -62 0 127 0 127 -40
0 -40 0 0 -235z"/>
<path d="M1987 643 c-4 -3 -7 -109 -7 -235 l0 -228 45 0 45 0 0 95 0 95 84 0
c70 0 88 4 117 23 44 30 59 60 59 124 0 63 -32 107 -88 123 -41 11 -245 14
-255 3z m227 -84 c32 -15 42 -54 22 -85 -18 -26 -61 -37 -121 -32 l-40 3 -3
63 -3 62 60 0 c33 0 71 -5 85 -11z"/>
<path d="M2390 416 l0 -236 93 0 c155 0 232 37 271 132 22 52 20 163 -3 213
-40 86 -101 116 -253 123 l-108 5 0 -237z m235 130 c38 -25 58 -74 58 -139 0
-93 -57 -147 -155 -147 l-48 0 0 156 0 157 60 -6 c34 -3 72 -12 85 -21z"/>
<path d="M2840 415 l0 -235 45 0 45 0 0 100 0 100 100 0 100 0 0 35 0 35 -100
0 -100 0 0 60 0 60 110 0 110 0 0 40 0 40 -155 0 -155 0 0 -235z"/>
<path d="M1310 508 c-103 -52 -121 -211 -33 -288 75 -66 194 -58 252 16 33 42
28 64 -15 64 -27 0 -43 -7 -64 -30 -33 -35 -67 -38 -103 -9 -52 40 -55 149 -4
184 34 24 84 19 111 -10 17 -18 34 -25 60 -25 20 0 36 5 36 11 0 26 -38 71
-75 89 -54 26 -110 25 -165 -2z"/>
<path d="M700 400 c0 -135 14 -188 57 -211 39 -21 97 -17 132 9 30 22 31 22
31 2 0 -17 6 -20 40 -20 l40 0 0 170 0 170 -40 0 -40 0 -1 -102 c-1 -57 -4
-114 -8 -128 -9 -32 -50 -55 -83 -47 -37 10 -48 51 -48 173 l0 104 -40 0 -40
0 0 -120z"/>
<path d="M1080 350 l0 -170 40 0 40 0 0 170 0 170 -40 0 -40 0 0 -170z"/>
<path d="M3205 246 c-18 -27 -11 -52 17 -67 42 -23 90 45 56 79 -20 20 -56 14
-73 -12z"/>
</g>
</svg>
