<?xml version="1.0" standalone="no"?>
<!DOCTYPE svg PUBLIC "-//W3C//DTD SVG 20010904//EN"
 "http://www.w3.org/TR/2001/REC-SVG-20010904/DTD/svg10.dtd">
<svg version="1.0" xmlns="http://www.w3.org/2000/svg"
 width="348.000000pt" height="81.000000pt" viewBox="0 0 348.000000 81.000000"
 preserveAspectRatio="xMidYMid meet">

<g transform="translate(0.000000,81.000000) scale(0.100000,-0.100000)"
fill="#000000" stroke="none">
<path d="M0 405 l0 -405 1740 0 1740 0 0 405 0 405 -1740 0 -1740 0 0 -405z
m537 219 c26 -15 53 -43 70 -72 25 -42 28 -57 28 -138 0 -84 -2 -94 -31 -140
l-30 -50 27 -44 28 -45 -47 -3 c-40 -3 -49 0 -65 22 -17 24 -23 26 -73 20
-110 -13 -214 48 -242 142 -28 93 -7 219 46 277 61 68 201 83 289 31z m611 20
c27 -19 28 -45 2 -69 -16 -15 -26 -17 -48 -9 -34 12 -44 61 -16 81 23 17 35
16 62 -3z m552 -116 l0 -121 64 61 c60 58 68 62 110 62 25 0 46 -3 46 -7 0 -4
-32 -40 -71 -79 l-71 -71 63 -74 c34 -41 71 -84 82 -96 l20 -23 -54 0 -54 0
-65 81 -65 82 -3 -82 -3 -81 -44 0 -45 0 0 228 c0 126 3 232 7 235 3 4 24 7
45 7 l38 0 0 -122z m553 108 c42 -18 67 -47 77 -90 11 -51 -4 -104 -39 -140
-29 -29 -37 -31 -124 -36 l-92 -5 -3 -93 -3 -92 -44 0 -45 0 0 235 0 235 120
0 c79 0 132 -5 153 -14z m355 4 c103 -23 161 -104 162 -226 0 -78 -15 -125
-53 -166 -47 -51 -83 -62 -209 -66 l-118 -4 0 236 0 236 85 0 c46 0 106 -5
133 -10z m542 -30 l0 -40 -110 0 -110 0 0 -60 0 -60 101 0 100 0 -3 -37 -3
-38 -97 -3 -98 -3 0 -94 0 -95 -45 0 -45 0 0 235 0 235 155 0 155 0 0 -40z
m-2360 -218 c5 -138 10 -151 53 -152 58 0 77 47 77 193 l0 98 38 -3 37 -3 3
-172 2 -173 -40 0 c-29 0 -40 4 -40 15 0 19 -9 19 -30 0 -49 -44 -150 -21
-175 39 -16 37 -22 276 -8 290 4 4 23 6 43 4 l35 -3 5 -133z m368 -39 l2 -173
-45 0 -45 0 0 168 c0 93 3 172 7 176 4 4 23 6 43 4 l35 -3 3 -172z m321 158
c39 -20 71 -59 71 -86 0 -27 -72 -20 -98 10 -30 34 -84 34 -117 0 -21 -20 -25
-34 -25 -80 0 -49 4 -60 29 -86 39 -38 75 -38 111 1 21 23 37 30 64 30 45 0
48 -24 11 -69 -80 -94 -244 -68 -291 46 -40 94 7 212 96 246 34 13 112 6 149
-12z m1804 -262 c14 -23 1 -67 -23 -74 -25 -8 -57 9 -65 36 -15 46 62 79 88
38z"/>
<path d="M376 570 c-61 -19 -96 -77 -96 -163 0 -153 178 -214 247 -85 23 44
23 142 0 185 -29 55 -92 81 -151 63z"/>
<path d="M2070 510 l0 -60 74 0 c76 0 88 5 100 47 5 17 1 29 -18 48 -22 22
-34 25 -91 25 l-65 0 0 -60z"/>
<path d="M2480 415 l0 -155 45 0 c54 0 102 19 130 49 27 31 34 145 10 190 -20
40 -83 70 -142 71 l-43 0 0 -155z"/>
</g>
</svg>
