<svg width="348" height="81" viewBox="0 0 348 81" fill="none" xmlns="http://www.w3.org/2000/svg"><path d="M35.28 20.704c0-2.23-.88-3.96-2.64-5.192-1.76-1.29-4.195-1.936-7.304-1.936-3.227 0-5.75.528-7.568 1.584-1.76.997-2.64 2.347-2.64 4.048 0 1.467.557 2.699 1.672 3.696 1.115.939 2.523 1.701 4.224 2.288 1.76.587 4.136 1.232 7.128 1.936 4.4 1.056 8.008 2.142 10.824 3.256a17.965 17.965 0 017.304 5.192c2.053 2.347 3.08 5.486 3.08 9.416 0 6.864-2.23 11.91-6.688 15.136-4.4 3.168-10.472 4.752-18.216 4.752-7.04 0-12.877-1.525-17.512-4.576C2.368 57.194.08 52.501.08 46.224l.088-1.936h12.848l-.088 1.408c0 2.582.968 4.635 2.904 6.16 1.936 1.467 4.664 2.2 8.184 2.2 4.107 0 7.04-.645 8.8-1.936 1.819-1.29 2.728-2.933 2.728-4.928 0-1.525-.557-2.757-1.672-3.696-1.056-.997-2.435-1.76-4.136-2.288-1.643-.587-3.96-1.232-6.952-1.936-4.459-1.114-8.096-2.23-10.912-3.344-2.816-1.114-5.25-2.904-7.304-5.368-2.053-2.464-3.08-5.778-3.08-9.944 0-3.872 1.056-7.157 3.168-9.856s4.928-4.693 8.448-5.984c3.579-1.35 7.568-2.024 11.968-2.024 6.747 0 12.261 1.496 16.544 4.488 4.283 2.934 6.424 7.333 6.424 13.2v1.056H35.28v-.792zM86.211 33.64c0-1.995-.645-3.608-1.936-4.84-1.232-1.232-3.256-1.848-6.072-1.848-1.642 0-3.05.293-4.224.88-1.173.528-2.082 1.203-2.728 2.024-.586.821-.88 1.584-.88 2.288v.704H57.963c-.117-.704-.176-1.232-.176-1.584 0-2.523.822-4.781 2.464-6.776 1.702-1.994 4.048-3.55 7.04-4.664 2.992-1.115 6.424-1.672 10.296-1.672h1.848c6.336 0 11.147 1.261 14.432 3.784 3.286 2.464 4.928 5.867 4.928 10.208v20.768c0 1.056.235 1.848.704 2.376.528.528 1.144.792 1.848.792.587 0 1.232-.117 1.936-.352s1.262-.44 1.672-.616v7.92c-2.17 1.232-4.752 1.848-7.744 1.848-3.226 0-5.69-.645-7.392-1.936-1.701-1.35-2.698-3.227-2.992-5.632-4.106 5.046-9.152 7.568-15.136 7.568-4.458 0-8.125-.91-11-2.728-2.874-1.819-4.312-5.28-4.312-10.384 0-4.165 1.174-7.333 3.52-9.504 2.406-2.23 5.72-3.725 9.944-4.488 4.224-.763 9.68-1.144 16.368-1.144V33.64zm0 10.208c-5.573 0-9.738.558-12.496 1.672-2.698 1.056-4.048 2.816-4.048 5.28 0 1.936.528 3.315 1.584 4.136 1.115.763 2.787 1.144 5.016 1.144 1.526 0 3.051-.41 4.576-1.232 1.526-.821 2.787-1.995 3.784-3.52 1.056-1.525 1.584-3.227 1.584-5.104v-2.376zm52.594-10.208c0-1.995-.645-3.608-1.936-4.84-1.232-1.232-3.256-1.848-6.072-1.848-1.643 0-3.051.293-4.224.88-1.173.528-2.083 1.203-2.728 2.024-.587.821-.88 1.584-.88 2.288v.704h-12.408c-.117-.704-.176-1.232-.176-1.584 0-2.523.821-4.781 2.464-6.776 1.701-1.994 4.048-3.55 7.04-4.664 2.992-1.115 6.424-1.672 10.296-1.672h1.848c6.336 0 11.147 1.261 14.432 3.784 3.285 2.464 4.928 5.867 4.928 10.208v20.768c0 1.056.235 1.848.704 2.376.528.528 1.144.792 1.848.792.587 0 1.232-.117 1.936-.352s1.261-.44 1.672-.616v7.92c-2.171 1.232-4.752 1.848-7.744 1.848-3.227 0-5.691-.645-7.392-1.936-1.701-1.35-2.699-3.227-2.992-5.632-4.107 5.046-9.152 7.568-15.136 7.568-4.459 0-8.125-.91-11-2.728-2.875-1.819-4.312-5.28-4.312-10.384 0-4.165 1.173-7.333 3.52-9.504 2.405-2.23 5.72-3.725 9.944-4.488 4.224-.763 9.68-1.144 16.368-1.144V33.64zm0 10.208c-5.573 0-9.739.558-12.496 1.672-2.699 1.056-4.048 2.816-4.048 5.28 0 1.936.528 3.315 1.584 4.136 1.115.763 2.787 1.144 5.016 1.144 1.525 0 3.051-.41 4.576-1.232 1.525-.821 2.787-1.995 3.784-3.52 1.056-1.525 1.584-3.227 1.584-5.104v-2.376zm33.146 6.424c0 2.053.909 3.55 2.728 4.488 1.819.88 4.077 1.32 6.776 1.32 2.347 0 4.429-.352 6.248-1.056 1.877-.704 2.816-1.819 2.816-3.344 0-1.642-.851-2.816-2.552-3.52-1.701-.704-4.341-1.32-7.92-1.848-3.755-.645-6.835-1.35-9.24-2.112-2.405-.763-4.488-2.083-6.248-3.96-1.701-1.877-2.552-4.488-2.552-7.832 0-3.05.88-5.632 2.64-7.744 1.819-2.17 4.195-3.784 7.128-4.84 2.992-1.115 6.248-1.672 9.768-1.672h1.76c3.109 0 6.043.528 8.8 1.584 2.816.997 5.075 2.435 6.776 4.312 1.701 1.819 2.552 3.902 2.552 6.248 0 .47-.029.91-.088 1.32a6.645 6.645 0 00-.088.616h-11.264c0-3.52-2.699-5.28-8.096-5.28-2.464 0-4.459.352-5.984 1.056-1.467.704-2.2 1.672-2.2 2.904 0 1.467.792 2.494 2.376 3.08 1.643.587 4.195 1.144 7.656 1.672 3.931.645 7.099 1.35 9.504 2.112 2.464.704 4.605 2.024 6.424 3.96 1.819 1.878 2.728 4.547 2.728 8.008 0 5.339-1.877 9.21-5.632 11.616-3.755 2.347-8.536 3.52-14.344 3.52h-2.904c-3.637 0-6.893-.557-9.768-1.672-2.875-1.114-5.133-2.698-6.776-4.752-1.584-2.053-2.376-4.4-2.376-7.04l.088-1.76h11.264v.616zM211.292 64V.64h12.848V64h-12.848zm66.29-16.808c0 3.93-.938 7.245-2.815 9.944-1.878 2.64-4.371 4.605-7.481 5.896-3.05 1.232-6.394 1.848-10.031 1.848h-1.409c-4.165 0-7.92-.88-11.264-2.64-3.344-1.76-5.984-4.282-7.92-7.568-1.877-3.344-2.816-7.304-2.816-11.88V40.24c0-4.517.968-8.448 2.904-11.792 1.936-3.344 4.547-5.896 7.832-7.656 3.344-1.76 7.099-2.64 11.264-2.64h1.409c3.637 0 7.01.763 10.12 2.288 3.109 1.467 5.602 3.637 7.479 6.512 1.878 2.816 2.817 6.16 2.817 10.032v6.688H246.87v2.112c0 2.934.851 5.398 2.552 7.392 1.76 1.936 4.137 2.904 7.129 2.904 2.698 0 4.81-.733 6.336-2.2 1.584-1.525 2.376-3.755 2.376-6.688h12.319zm-21.648-20.24c-2.581 0-4.693.91-6.336 2.728-1.584 1.819-2.493 4.136-2.728 6.952h17.777c0-2.992-.704-5.338-2.112-7.04-1.35-1.76-3.55-2.64-6.601-2.64zm56.143 34.584c-2.171 5.867-4.84 10.472-8.008 13.816-3.168 3.403-6.981 5.104-11.44 5.104-3.109 0-5.632-.44-7.568-1.32v-9.064c.704.293 1.613.557 2.728.792 1.115.293 2.171.44 3.168.44 3.755 0 6.424-2.728 8.008-8.184l-16.984-44.088h13.64l9.944 28.248h.528l9.328-28.248h12.672l-16.016 42.504zm22.276-10.472h12.848V64h-12.848V51.064z" fill="#1C1C23"/></svg>